# xmcd CD database file
#
# Track frame offsets:
#	183
#	17625
#	36588
#	55403
#	79873
#	92495
#	117553
#	157930
#	179405
#	201508
#	217213
#	235630
#	251883
#	269443
#
# Disc length: 3863 seconds
#
# Revision: 3
# Processed by: cddbd v1.5.1PL0 Copyright (c) Steve Scherf et al.
# Submitted via: NeoAudio 9.9.9
#
DISCID=ce0f150e
DTITLE=HIFI VISIONEN - Pop CD 12
DYEAR=1988
DGENRE=Pop
TTITLE0=Inxs - Falling Down The Mountain ( Kiss The Dirt )
TTITLE1=Yello - The Rhythm Divine
TTITLE2=Ozak Mountain Daredevils - Jackie Blue
TTITLE3=Graham Parker and The Rumour - Hey Lord, Don't Ask Me Questions
TTITLE4=Steve Harley - Hot Youth
TTITLE5=Alfie's Ball - The Bet
TTITLE6=Soft Cell - Tainted Love - Where Did Our Love Go
TTITLE7=Hipsway - Forbidden
TTITLE8=ABC - The Night You Murdered Love
TTITLE9=The Stranglers - Golden Brown
TTITLE10=Hipsway - Upon A Thread
TTITLE11=J. Geils Band - Come Back
TTITLE12=Kim Carnes - Voyeur
TTITLE13=Steve Harley - Someone's Coming
EXTD=1988, The titles were specially treated (de-hissed, bass-extended and soon) for better quality YEAR: 1988
EXTT0=
EXTT1=
EXTT2=
EXTT3=
EXTT4=
EXTT5=
EXTT6=Maxi -Version, appeared on this CD the first time in Germany
EXTT7=
EXTT8=
EXTT9=
EXTT10=
EXTT11=
EXTT12=
EXTT13=
PLAYORDER=
